<svg width="150" height="150" viewBox="0 0 150 150" fill="none" xmlns="http://www.w3.org/2000/svg">
<g clip-path="url(#clip0_1083_148)">
<path d="M150 0H0V150H150V0Z" fill="#A34E4E" fill-opacity="0.01"/>
<path d="M74.9996 12.5L91.4162 24.4751L111.736 24.4364L117.979 43.7741L134.441 55.6866L128.125 75L134.441 94.3134L117.979 106.226L111.736 125.563L91.4162 125.525L74.9996 137.5L58.5831 125.525L38.2631 125.563L32.0206 106.226L15.5586 94.3134L21.8746 75L15.5586 55.6866L32.0206 43.7741L38.2631 24.4364L58.5831 24.4751L74.9996 12.5Z" fill="#F8B500"/>
<path fill-rule="evenodd" clip-rule="evenodd" d="M71.3168 7.45064C73.5114 5.84979 76.4887 5.84979 78.6833 7.45064L93.4486 18.2212L111.725 18.1864C114.441 18.1813 116.85 19.9313 117.684 22.5164L123.299 39.909L138.105 50.6232C140.306 52.2157 141.226 55.0473 140.381 57.6292L134.701 75L140.381 92.3708C141.226 94.9527 140.306 97.7843 138.105 99.3768L123.299 110.091L117.684 127.483C116.85 130.069 114.441 131.819 111.725 131.813L93.4486 131.779L78.6833 142.549C76.4887 144.15 73.5114 144.15 71.3168 142.549L56.5515 131.779L38.2753 131.813C35.5589 131.819 33.1502 130.069 32.3157 127.483L26.7011 110.091L11.895 99.3768C9.69432 97.7843 8.77427 94.9526 9.61862 92.3708L15.2993 75L9.61862 57.6292C8.77427 55.0474 9.69432 52.2157 11.895 50.6232L26.7011 39.909L32.3157 22.5164C33.1502 19.9313 35.559 18.1813 38.2754 18.1864L56.5515 18.2212L71.3168 7.45064ZM75 20.2361L62.2668 29.5245C61.1939 30.3071 59.8996 30.7276 58.5716 30.7251L42.8107 30.6951L37.9688 45.6941C37.5608 46.9579 36.7609 48.0589 35.685 48.8374L22.9165 58.0772L27.8155 73.0573C28.2283 74.3195 28.2283 75.6805 27.8155 76.9427L22.9165 91.9228L35.685 101.163C36.7609 101.941 37.5608 103.042 37.9688 104.306L42.8107 119.305L58.5717 119.275C59.8996 119.272 61.1939 119.693 62.2667 120.476L75 129.764L87.7334 120.476C88.8062 119.693 90.1005 119.272 91.4284 119.275L107.189 119.305L112.031 104.306C112.439 103.042 113.239 101.941 114.315 101.163L127.083 91.9228L122.185 76.9426C121.772 75.6804 121.772 74.3196 122.185 73.0573L127.083 58.0772L114.315 48.8374C113.239 48.0589 112.439 46.9579 112.031 45.6941L107.189 30.6951L91.4285 30.7251C90.1005 30.7276 88.8062 30.3071 87.7333 29.5245L75 20.2361Z" fill="#393E46"/>
<path fill-rule="evenodd" clip-rule="evenodd" d="M104.419 54.9556C106.86 57.3964 106.86 61.3536 104.419 63.7944L73.1694 95.0444C70.7286 97.4852 66.7714 97.4852 64.3306 95.0444L48.7056 79.4194C46.2648 76.9786 46.2648 73.0214 48.7056 70.5806C51.1464 68.1398 55.1036 68.1398 57.5444 70.5806L68.75 81.7862L95.5806 54.9556C98.0214 52.5148 101.979 52.5148 104.419 54.9556Z" fill="#393E46"/>
</g>
<defs>
<clipPath id="clip0_1083_148">
<rect width="150" height="150" fill="white"/>
</clipPath>
</defs>
</svg>
